<svg width="2692" height="666" viewBox="0 0 2692 666" fill="none" xmlns="http://www.w3.org/2000/svg">
<rect x="777" y="485" width="181" height="181" rx="90.5" fill="#999999"/>
<rect x="815" y="524" width="104" height="104" rx="52" fill="#C4C4C4"/>
<rect x="1042" y="485" width="181" height="181" rx="90.5" fill="#999999"/>
<rect x="1080" y="524" width="104" height="104" rx="52" fill="#C4C4C4"/>
<rect x="695.5" y="62.5" width="608" height="511" rx="47.5" fill="#24A3FF" stroke="#C4C4C4" stroke-width="5"/>
<rect x="731.5" y="95.5" width="252" height="232" rx="27.5" fill="#C6E3F3" stroke="#C4C4C4" stroke-width="5"/>
<rect x="1022.5" y="95.5" width="246" height="232" rx="27.5" fill="#C6E3F3" stroke="#C4C4C4" stroke-width="5"/>
<path d="M951.15 522L963.95 487H971.15L983.95 522H977.15L974.35 513.9H960.7L957.85 522H951.15ZM962.45 508.9H972.6L967.5 494.35L962.45 508.9ZM1002.31 522.6C998.773 522.6 995.74 521.85 993.207 520.35C990.673 518.817 988.723 516.7 987.357 514C985.99 511.267 985.307 508.117 985.307 504.55C985.307 500.983 985.99 497.833 987.357 495.1C988.723 492.367 990.673 490.233 993.207 488.7C995.74 487.167 998.773 486.4 1002.31 486.4C1006.51 486.4 1009.94 487.45 1012.61 489.55C1015.31 491.617 1016.99 494.533 1017.66 498.3H1010.61C1010.17 496.4 1009.24 494.917 1007.81 493.85C1006.41 492.75 1004.54 492.2 1002.21 492.2C998.973 492.2 996.44 493.3 994.607 495.5C992.773 497.7 991.857 500.717 991.857 504.55C991.857 508.383 992.773 511.4 994.607 513.6C996.44 515.767 998.973 516.85 1002.21 516.85C1004.54 516.85 1006.41 516.35 1007.81 515.35C1009.24 514.317 1010.17 512.9 1010.61 511.1H1017.66C1016.99 514.7 1015.31 517.517 1012.61 519.55C1009.94 521.583 1006.51 522.6 1002.31 522.6ZM1039.04 522V494.3L1033.29 495.65V490.75L1041.74 487H1045.69V522H1039.04Z" fill="white"/>
<path d="M767 60C767 40.67 782.67 25 802 25H1206C1225.33 25 1241 40.67 1241 60V60H767V60Z" fill="#C4C4C4"/>
<path d="M1004 25C1004 11.1929 1015.19 0 1029 0H1173C1186.81 0 1198 11.1929 1198 25V25H1004V25Z" fill="#999999"/>
<rect x="82" y="485" width="181" height="181" rx="90.5" fill="#999999"/>
<rect x="120" y="524" width="104" height="104" rx="52" fill="#C4C4C4"/>
<rect x="347" y="485" width="181" height="181" rx="90.5" fill="#999999"/>
<rect x="385" y="524" width="104" height="104" rx="52" fill="#C4C4C4"/>
<rect x="1471" y="485" width="181" height="181" rx="90.5" fill="#999999"/>
<rect x="1509" y="524" width="104" height="104" rx="52" fill="#C4C4C4"/>
<rect x="1736" y="485" width="181" height="181" rx="90.5" fill="#999999"/>
<rect x="1774" y="524" width="104" height="104" rx="52" fill="#C4C4C4"/>
<rect x="613" y="461" width="30" height="47" fill="#999999"/>
<rect x="663" y="461" width="30" height="47" fill="#999999"/>
<rect x="643" y="440" width="20" height="89" fill="#999999"/>
<rect x="1999" y="461" width="30" height="47" fill="#999999"/>
<rect x="2049" y="461" width="30" height="47" fill="#999999"/>
<rect x="2029" y="440" width="20" height="89" fill="#999999"/>
<rect x="1306" y="461" width="30" height="47" fill="#999999"/>
<rect x="1356" y="461" width="30" height="47" fill="#999999"/>
<rect x="1336" y="440" width="20" height="89" fill="#999999"/>
<mask id="path-28-inside-1_18_129" fill="white">
<path fill-rule="evenodd" clip-rule="evenodd" d="M613 110C613 82.3858 590.614 60 563 60H222.655C207.112 60 192.453 67.2285 182.99 79.5591L10.3345 304.534C3.63269 313.266 0 323.967 0 334.975V526C0 553.614 22.3858 576 50 576H563C590.614 576 613 553.614 613 526V318V110Z"/>
</mask>
<path fill-rule="evenodd" clip-rule="evenodd" d="M613 110C613 82.3858 590.614 60 563 60H222.655C207.112 60 192.453 67.2285 182.99 79.5591L10.3345 304.534C3.63269 313.266 0 323.967 0 334.975V526C0 553.614 22.3858 576 50 576H563C590.614 576 613 553.614 613 526V318V110Z" fill="#E7E7E7"/>
<path d="M10.3345 304.534L14.3011 307.578L10.3345 304.534ZM182.99 79.5591L179.023 76.515L182.99 79.5591ZM222.655 65H563V55H222.655V65ZM14.3011 307.578L186.956 82.6032L179.023 76.515L6.36799 301.49L14.3011 307.578ZM5 526V334.975H-5V526H5ZM563 571H50V581H563V571ZM608 318V526H618V318H608ZM608 110V318H618V110H608ZM563 581C593.376 581 618 556.376 618 526H608C608 550.853 587.853 571 563 571V581ZM-5 526C-5 556.376 19.6244 581 50 581V571C25.1472 571 5 550.853 5 526H-5ZM6.36799 301.49C-1.00404 311.096 -5 322.866 -5 334.975H5C5 325.068 8.26942 315.437 14.3011 307.578L6.36799 301.49ZM563 65C587.853 65 608 85.1472 608 110H618C618 79.6243 593.376 55 563 55V65ZM222.655 55C205.557 55 189.432 62.9513 179.023 76.515L186.956 82.6032C195.473 71.5056 208.666 65 222.655 65V55Z" fill="#C4C4C4" mask="url(#path-28-inside-1_18_129)"/>
<rect x="1388.5" y="62.5" width="608" height="511" rx="47.5" fill="#E7E7E7" stroke="#C4C4C4" stroke-width="5"/>
<path d="M233.848 95.5H557C566.665 95.5 574.5 103.335 574.5 113V310C574.5 319.665 566.665 327.5 557 327.5H89.456C75.1237 327.5 66.8686 311.214 75.3414 299.655L219.733 102.655C223.03 98.1573 228.272 95.5 233.848 95.5Z" fill="#C6E3F3" stroke="#C4C4C4" stroke-width="5"/>
<rect x="1423.5" y="95.5" width="252" height="232" rx="27.5" fill="#C6E3F3" stroke="#C4C4C4" stroke-width="5"/>
<rect x="1714.5" y="95.5" width="246" height="232" rx="27.5" fill="#C6E3F3" stroke="#C4C4C4" stroke-width="5"/>
<rect x="2164" y="485" width="181" height="181" rx="90.5" fill="#999999"/>
<rect x="2202" y="524" width="104" height="104" rx="52" fill="#C4C4C4"/>
<rect x="2429" y="485" width="181" height="181" rx="90.5" fill="#999999"/>
<rect x="2467" y="524" width="104" height="104" rx="52" fill="#C4C4C4"/>
<rect x="2081.5" y="62.5" width="608" height="511" rx="47.5" fill="#E7E7E7" stroke="#C4C4C4" stroke-width="5"/>
<rect x="2116.5" y="95.5" width="252" height="232" rx="27.5" fill="#C6E3F3" stroke="#C4C4C4" stroke-width="5"/>
<rect x="2407.5" y="95.5" width="246" height="232" rx="27.5" fill="#C6E3F3" stroke="#C4C4C4" stroke-width="5"/>
<path d="M242.72 520V492H261V496.12H247.84V503.8H259.8V507.8H247.84V515.88H261V520H242.72ZM265.725 520V500.16H270.245L270.645 503.52C271.258 502.347 272.138 501.413 273.285 500.72C274.458 500.027 275.832 499.68 277.405 499.68C279.858 499.68 281.765 500.453 283.125 502C284.485 503.547 285.165 505.813 285.165 508.8V520H280.045V509.28C280.045 507.573 279.698 506.267 279.005 505.36C278.312 504.453 277.232 504 275.765 504C274.325 504 273.138 504.507 272.205 505.52C271.298 506.533 270.845 507.947 270.845 509.76V520H265.725ZM298.461 514.08C297.501 514.08 296.608 513.973 295.781 513.76L294.301 515.24C294.754 515.48 295.368 515.68 296.141 515.84C296.914 516 298.168 516.16 299.901 516.32C302.541 516.56 304.461 517.187 305.661 518.2C306.861 519.213 307.461 520.613 307.461 522.4C307.461 523.573 307.141 524.68 306.501 525.72C305.861 526.787 304.874 527.64 303.541 528.28C302.208 528.947 300.501 529.28 298.421 529.28C295.594 529.28 293.314 528.747 291.581 527.68C289.848 526.64 288.981 525.067 288.981 522.96C288.981 521.173 289.848 519.627 291.581 518.32C291.048 518.08 290.581 517.827 290.181 517.56C289.808 517.293 289.474 517.013 289.181 516.72V515.8L292.661 512.12C291.114 510.76 290.341 509.013 290.341 506.88C290.341 505.547 290.661 504.333 291.301 503.24C291.968 502.147 292.901 501.28 294.101 500.64C295.301 500 296.754 499.68 298.461 499.68C299.581 499.68 300.621 499.84 301.581 500.16H309.101V503.28L305.701 503.52C306.234 504.533 306.501 505.653 306.501 506.88C306.501 508.213 306.181 509.427 305.541 510.52C304.901 511.613 303.968 512.48 302.741 513.12C301.541 513.76 300.114 514.08 298.461 514.08ZM298.461 510.16C299.501 510.16 300.354 509.88 301.021 509.32C301.714 508.76 302.061 507.96 302.061 506.92C302.061 505.88 301.714 505.08 301.021 504.52C300.354 503.96 299.501 503.68 298.461 503.68C297.368 503.68 296.488 503.96 295.821 504.52C295.154 505.08 294.821 505.88 294.821 506.92C294.821 507.96 295.154 508.76 295.821 509.32C296.488 509.88 297.368 510.16 298.461 510.16ZM293.661 522.44C293.661 523.427 294.114 524.16 295.021 524.64C295.954 525.147 297.088 525.4 298.421 525.4C299.701 525.4 300.741 525.133 301.541 524.6C302.341 524.093 302.741 523.4 302.741 522.52C302.741 521.8 302.474 521.2 301.941 520.72C301.434 520.24 300.408 519.947 298.861 519.84C297.768 519.76 296.754 519.64 295.821 519.48C295.048 519.907 294.488 520.373 294.141 520.88C293.821 521.387 293.661 521.907 293.661 522.44ZM315.594 497.08C314.661 497.08 313.888 496.8 313.274 496.24C312.688 495.68 312.394 494.973 312.394 494.12C312.394 493.267 312.688 492.573 313.274 492.04C313.888 491.48 314.661 491.2 315.594 491.2C316.528 491.2 317.288 491.48 317.874 492.04C318.488 492.573 318.794 493.267 318.794 494.12C318.794 494.973 318.488 495.68 317.874 496.24C317.288 496.8 316.528 497.08 315.594 497.08ZM313.034 520V500.16H318.154V520H313.034ZM323.498 520V500.16H328.018L328.418 503.52C329.032 502.347 329.912 501.413 331.058 500.72C332.232 500.027 333.605 499.68 335.178 499.68C337.632 499.68 339.538 500.453 340.898 502C342.258 503.547 342.938 505.813 342.938 508.8V520H337.818V509.28C337.818 507.573 337.472 506.267 336.778 505.36C336.085 504.453 335.005 504 333.538 504C332.098 504 330.912 504.507 329.978 505.52C329.072 506.533 328.618 507.947 328.618 509.76V520H323.498ZM357.474 520.48C355.474 520.48 353.701 520.053 352.154 519.2C350.608 518.347 349.394 517.147 348.514 515.6C347.634 514.053 347.194 512.267 347.194 510.24C347.194 508.187 347.621 506.36 348.474 504.76C349.354 503.16 350.554 501.92 352.074 501.04C353.621 500.133 355.434 499.68 357.514 499.68C359.461 499.68 361.181 500.107 362.674 500.96C364.168 501.813 365.328 502.987 366.154 504.48C367.008 505.947 367.434 507.587 367.434 509.4C367.434 509.693 367.421 510 367.394 510.32C367.394 510.64 367.381 510.973 367.354 511.32H352.274C352.381 512.867 352.914 514.08 353.874 514.96C354.861 515.84 356.048 516.28 357.434 516.28C358.474 516.28 359.341 516.053 360.034 515.6C360.754 515.12 361.288 514.507 361.634 513.76H366.834C366.461 515.013 365.834 516.16 364.954 517.2C364.101 518.213 363.034 519.013 361.754 519.6C360.501 520.187 359.074 520.48 357.474 520.48ZM357.514 503.84C356.261 503.84 355.154 504.2 354.194 504.92C353.234 505.613 352.621 506.68 352.354 508.12H362.234C362.154 506.813 361.674 505.773 360.794 505C359.914 504.227 358.821 503.84 357.514 503.84Z" fill="#646464"/>
<path d="M1622.4 525.48C1619.57 525.48 1617.15 524.88 1615.12 523.68C1613.09 522.453 1611.53 520.76 1610.44 518.6C1609.35 516.413 1608.8 513.893 1608.8 511.04C1608.8 508.187 1609.35 505.667 1610.44 503.48C1611.53 501.293 1613.09 499.587 1615.12 498.36C1617.15 497.133 1619.57 496.52 1622.4 496.52C1625.76 496.52 1628.51 497.36 1630.64 499.04C1632.8 500.693 1634.15 503.027 1634.68 506.04H1629.04C1628.69 504.52 1627.95 503.333 1626.8 502.48C1625.68 501.6 1624.19 501.16 1622.32 501.16C1619.73 501.16 1617.71 502.04 1616.24 503.8C1614.77 505.56 1614.04 507.973 1614.04 511.04C1614.04 514.107 1614.77 516.52 1616.24 518.28C1617.71 520.013 1619.73 520.88 1622.32 520.88C1624.19 520.88 1625.68 520.48 1626.8 519.68C1627.95 518.853 1628.69 517.72 1629.04 516.28H1634.68C1634.15 519.16 1632.8 521.413 1630.64 523.04C1628.51 524.667 1625.76 525.48 1622.4 525.48ZM1645.93 525.48C1644.23 525.48 1642.83 525.213 1641.73 524.68C1640.64 524.12 1639.83 523.387 1639.29 522.48C1638.76 521.573 1638.49 520.573 1638.49 519.48C1638.49 517.64 1639.21 516.147 1640.65 515C1642.09 513.853 1644.25 513.28 1647.13 513.28H1652.17V512.8C1652.17 511.44 1651.79 510.44 1651.01 509.8C1650.24 509.16 1649.28 508.84 1648.13 508.84C1647.09 508.84 1646.19 509.093 1645.41 509.6C1644.64 510.08 1644.16 510.8 1643.97 511.76H1638.97C1639.11 510.32 1639.59 509.067 1640.41 508C1641.27 506.933 1642.36 506.12 1643.69 505.56C1645.03 504.973 1646.52 504.68 1648.17 504.68C1651 504.68 1653.23 505.387 1654.85 506.8C1656.48 508.213 1657.29 510.213 1657.29 512.8V525H1652.93L1652.45 521.8C1651.87 522.867 1651.04 523.747 1649.97 524.44C1648.93 525.133 1647.59 525.48 1645.93 525.48ZM1647.09 521.48C1648.56 521.48 1649.69 521 1650.49 520.04C1651.32 519.08 1651.84 517.893 1652.05 516.48H1647.69C1646.33 516.48 1645.36 516.733 1644.77 517.24C1644.19 517.72 1643.89 518.32 1643.89 519.04C1643.89 519.813 1644.19 520.413 1644.77 520.84C1645.36 521.267 1646.13 521.48 1647.09 521.48ZM1662.18 525V505.16H1666.74L1667.22 508.88C1667.94 507.6 1668.91 506.587 1670.14 505.84C1671.39 505.067 1672.86 504.68 1674.54 504.68V510.08H1673.1C1671.98 510.08 1670.98 510.253 1670.1 510.6C1669.22 510.947 1668.52 511.547 1668.02 512.4C1667.54 513.253 1667.3 514.44 1667.3 515.96V525H1662.18ZM1678.04 525V505.16H1682.6L1683.08 508.88C1683.8 507.6 1684.77 506.587 1686 505.84C1687.25 505.067 1688.72 504.68 1690.4 504.68V510.08H1688.96C1687.84 510.08 1686.84 510.253 1685.96 510.6C1685.08 510.947 1684.38 511.547 1683.88 512.4C1683.4 513.253 1683.16 514.44 1683.16 515.96V525H1678.04ZM1696.66 502.08C1695.72 502.08 1694.95 501.8 1694.34 501.24C1693.75 500.68 1693.46 499.973 1693.46 499.12C1693.46 498.267 1693.75 497.573 1694.34 497.04C1694.95 496.48 1695.72 496.2 1696.66 496.2C1697.59 496.2 1698.35 496.48 1698.94 497.04C1699.55 497.573 1699.86 498.267 1699.86 499.12C1699.86 499.973 1699.55 500.68 1698.94 501.24C1698.35 501.8 1697.59 502.08 1696.66 502.08ZM1694.1 525V505.16H1699.22V525H1694.1ZM1711.4 525.48C1709.69 525.48 1708.29 525.213 1707.2 524.68C1706.11 524.12 1705.29 523.387 1704.76 522.48C1704.23 521.573 1703.96 520.573 1703.96 519.48C1703.96 517.64 1704.68 516.147 1706.12 515C1707.56 513.853 1709.72 513.28 1712.6 513.28H1717.64V512.8C1717.64 511.44 1717.25 510.44 1716.48 509.8C1715.71 509.16 1714.75 508.84 1713.6 508.84C1712.56 508.84 1711.65 509.093 1710.88 509.6C1710.11 510.08 1709.63 510.8 1709.44 511.76H1704.44C1704.57 510.32 1705.05 509.067 1705.88 508C1706.73 506.933 1707.83 506.12 1709.16 505.56C1710.49 504.973 1711.99 504.68 1713.64 504.68C1716.47 504.68 1718.69 505.387 1720.32 506.8C1721.95 508.213 1722.76 510.213 1722.76 512.8V525H1718.4L1717.92 521.8C1717.33 522.867 1716.51 523.747 1715.44 524.44C1714.4 525.133 1713.05 525.48 1711.4 525.48ZM1712.56 521.48C1714.03 521.48 1715.16 521 1715.96 520.04C1716.79 519.08 1717.31 517.893 1717.52 516.48H1713.16C1711.8 516.48 1710.83 516.733 1710.24 517.24C1709.65 517.72 1709.36 518.32 1709.36 519.04C1709.36 519.813 1709.65 520.413 1710.24 520.84C1710.83 521.267 1711.6 521.48 1712.56 521.48ZM1736.05 519.08C1735.09 519.08 1734.19 518.973 1733.37 518.76L1731.89 520.24C1732.34 520.48 1732.95 520.68 1733.73 520.84C1734.5 521 1735.75 521.16 1737.49 521.32C1740.13 521.56 1742.05 522.187 1743.25 523.2C1744.45 524.213 1745.05 525.613 1745.05 527.4C1745.05 528.573 1744.73 529.68 1744.09 530.72C1743.45 531.787 1742.46 532.64 1741.13 533.28C1739.79 533.947 1738.09 534.28 1736.01 534.28C1733.18 534.28 1730.9 533.747 1729.17 532.68C1727.43 531.64 1726.57 530.067 1726.57 527.96C1726.57 526.173 1727.43 524.627 1729.17 523.32C1728.63 523.08 1728.17 522.827 1727.77 522.56C1727.39 522.293 1727.06 522.013 1726.77 521.72V520.8L1730.25 517.12C1728.7 515.76 1727.93 514.013 1727.93 511.88C1727.93 510.547 1728.25 509.333 1728.89 508.24C1729.55 507.147 1730.49 506.28 1731.69 505.64C1732.89 505 1734.34 504.68 1736.05 504.68C1737.17 504.68 1738.21 504.84 1739.17 505.16H1746.69V508.28L1743.29 508.52C1743.82 509.533 1744.09 510.653 1744.09 511.88C1744.09 513.213 1743.77 514.427 1743.13 515.52C1742.49 516.613 1741.55 517.48 1740.33 518.12C1739.13 518.76 1737.7 519.08 1736.05 519.08ZM1736.05 515.16C1737.09 515.16 1737.94 514.88 1738.61 514.32C1739.3 513.76 1739.65 512.96 1739.65 511.92C1739.65 510.88 1739.3 510.08 1738.61 509.52C1737.94 508.96 1737.09 508.68 1736.05 508.68C1734.95 508.68 1734.07 508.96 1733.41 509.52C1732.74 510.08 1732.41 510.88 1732.41 511.92C1732.41 512.96 1732.74 513.76 1733.41 514.32C1734.07 514.88 1734.95 515.16 1736.05 515.16ZM1731.25 527.44C1731.25 528.427 1731.7 529.16 1732.61 529.64C1733.54 530.147 1734.67 530.4 1736.01 530.4C1737.29 530.4 1738.33 530.133 1739.13 529.6C1739.93 529.093 1740.33 528.4 1740.33 527.52C1740.33 526.8 1740.06 526.2 1739.53 525.72C1739.02 525.24 1737.99 524.947 1736.45 524.84C1735.35 524.76 1734.34 524.64 1733.41 524.48C1732.63 524.907 1732.07 525.373 1731.73 525.88C1731.41 526.387 1731.25 526.907 1731.25 527.44ZM1759.28 525.48C1757.28 525.48 1755.51 525.053 1753.96 524.2C1752.41 523.347 1751.2 522.147 1750.32 520.6C1749.44 519.053 1749 517.267 1749 515.24C1749 513.187 1749.43 511.36 1750.28 509.76C1751.16 508.16 1752.36 506.92 1753.88 506.04C1755.43 505.133 1757.24 504.68 1759.32 504.68C1761.27 504.68 1762.99 505.107 1764.48 505.96C1765.97 506.813 1767.13 507.987 1767.96 509.48C1768.81 510.947 1769.24 512.587 1769.24 514.4C1769.24 514.693 1769.23 515 1769.2 515.32C1769.2 515.64 1769.19 515.973 1769.16 516.32H1754.08C1754.19 517.867 1754.72 519.08 1755.68 519.96C1756.67 520.84 1757.85 521.28 1759.24 521.28C1760.28 521.28 1761.15 521.053 1761.84 520.6C1762.56 520.12 1763.09 519.507 1763.44 518.76H1768.64C1768.27 520.013 1767.64 521.16 1766.76 522.2C1765.91 523.213 1764.84 524.013 1763.56 524.6C1762.31 525.187 1760.88 525.48 1759.28 525.48ZM1759.32 508.84C1758.07 508.84 1756.96 509.2 1756 509.92C1755.04 510.613 1754.43 511.68 1754.16 513.12H1764.04C1763.96 511.813 1763.48 510.773 1762.6 510C1761.72 509.227 1760.63 508.84 1759.32 508.84ZM1782.52 525V521.28C1784.22 519.867 1785.88 518.467 1787.48 517.08C1789.1 515.693 1790.54 514.32 1791.8 512.96C1793.08 511.6 1794.09 510.28 1794.84 509C1795.61 507.693 1796 506.427 1796 505.2C1796 504.053 1795.68 503.04 1795.04 502.16C1794.42 501.28 1793.4 500.84 1791.96 500.84C1790.49 500.84 1789.38 501.32 1788.64 502.28C1787.89 503.24 1787.52 504.4 1787.52 505.76H1782.56C1782.61 503.707 1783.06 502 1783.92 500.64C1784.77 499.253 1785.9 498.227 1787.32 497.56C1788.73 496.867 1790.32 496.52 1792.08 496.52C1794.93 496.52 1797.14 497.307 1798.72 498.88C1800.32 500.427 1801.12 502.44 1801.12 504.92C1801.12 506.467 1800.76 507.973 1800.04 509.44C1799.34 510.907 1798.42 512.32 1797.28 513.68C1796.13 515.04 1794.89 516.32 1793.56 517.52C1792.22 518.693 1790.93 519.787 1789.68 520.8H1801.8V525H1782.52Z" fill="#646464"/>
<path d="M2309.4 525.48C2306.57 525.48 2304.15 524.88 2302.12 523.68C2300.09 522.453 2298.53 520.76 2297.44 518.6C2296.35 516.413 2295.8 513.893 2295.8 511.04C2295.8 508.187 2296.35 505.667 2297.44 503.48C2298.53 501.293 2300.09 499.587 2302.12 498.36C2304.15 497.133 2306.57 496.52 2309.4 496.52C2312.76 496.52 2315.51 497.36 2317.64 499.04C2319.8 500.693 2321.15 503.027 2321.68 506.04H2316.04C2315.69 504.52 2314.95 503.333 2313.8 502.48C2312.68 501.6 2311.19 501.16 2309.32 501.16C2306.73 501.16 2304.71 502.04 2303.24 503.8C2301.77 505.56 2301.04 507.973 2301.04 511.04C2301.04 514.107 2301.77 516.52 2303.24 518.28C2304.71 520.013 2306.73 520.88 2309.32 520.88C2311.19 520.88 2312.68 520.48 2313.8 519.68C2314.95 518.853 2315.69 517.72 2316.04 516.28H2321.68C2321.15 519.16 2319.8 521.413 2317.64 523.04C2315.51 524.667 2312.76 525.48 2309.4 525.48ZM2332.93 525.48C2331.23 525.48 2329.83 525.213 2328.73 524.68C2327.64 524.12 2326.83 523.387 2326.29 522.48C2325.76 521.573 2325.49 520.573 2325.49 519.48C2325.49 517.64 2326.21 516.147 2327.65 515C2329.09 513.853 2331.25 513.28 2334.13 513.28H2339.17V512.8C2339.17 511.44 2338.79 510.44 2338.01 509.8C2337.24 509.16 2336.28 508.84 2335.13 508.84C2334.09 508.84 2333.19 509.093 2332.41 509.6C2331.64 510.08 2331.16 510.8 2330.97 511.76H2325.97C2326.11 510.32 2326.59 509.067 2327.41 508C2328.27 506.933 2329.36 506.12 2330.69 505.56C2332.03 504.973 2333.52 504.68 2335.17 504.68C2338 504.68 2340.23 505.387 2341.85 506.8C2343.48 508.213 2344.29 510.213 2344.29 512.8V525H2339.93L2339.45 521.8C2338.87 522.867 2338.04 523.747 2336.97 524.44C2335.93 525.133 2334.59 525.48 2332.93 525.48ZM2334.09 521.48C2335.56 521.48 2336.69 521 2337.49 520.04C2338.32 519.08 2338.84 517.893 2339.05 516.48H2334.69C2333.33 516.48 2332.36 516.733 2331.77 517.24C2331.19 517.72 2330.89 518.32 2330.89 519.04C2330.89 519.813 2331.19 520.413 2331.77 520.84C2332.36 521.267 2333.13 521.48 2334.09 521.48ZM2349.18 525V505.16H2353.74L2354.22 508.88C2354.94 507.6 2355.91 506.587 2357.14 505.84C2358.39 505.067 2359.86 504.68 2361.54 504.68V510.08H2360.1C2358.98 510.08 2357.98 510.253 2357.1 510.6C2356.22 510.947 2355.52 511.547 2355.02 512.4C2354.54 513.253 2354.3 514.44 2354.3 515.96V525H2349.18ZM2365.04 525V505.16H2369.6L2370.08 508.88C2370.8 507.6 2371.77 506.587 2373 505.84C2374.25 505.067 2375.72 504.68 2377.4 504.68V510.08H2375.96C2374.84 510.08 2373.84 510.253 2372.96 510.6C2372.08 510.947 2371.38 511.547 2370.88 512.4C2370.4 513.253 2370.16 514.44 2370.16 515.96V525H2365.04ZM2383.66 502.08C2382.72 502.08 2381.95 501.8 2381.34 501.24C2380.75 500.68 2380.46 499.973 2380.46 499.12C2380.46 498.267 2380.75 497.573 2381.34 497.04C2381.95 496.48 2382.72 496.2 2383.66 496.2C2384.59 496.2 2385.35 496.48 2385.94 497.04C2386.55 497.573 2386.86 498.267 2386.86 499.12C2386.86 499.973 2386.55 500.68 2385.94 501.24C2385.35 501.8 2384.59 502.08 2383.66 502.08ZM2381.1 525V505.16H2386.22V525H2381.1ZM2398.4 525.48C2396.69 525.48 2395.29 525.213 2394.2 524.68C2393.11 524.12 2392.29 523.387 2391.76 522.48C2391.23 521.573 2390.96 520.573 2390.96 519.48C2390.96 517.64 2391.68 516.147 2393.12 515C2394.56 513.853 2396.72 513.28 2399.6 513.28H2404.64V512.8C2404.64 511.44 2404.25 510.44 2403.48 509.8C2402.71 509.16 2401.75 508.84 2400.6 508.84C2399.56 508.84 2398.65 509.093 2397.88 509.6C2397.11 510.08 2396.63 510.8 2396.44 511.76H2391.44C2391.57 510.32 2392.05 509.067 2392.88 508C2393.73 506.933 2394.83 506.12 2396.16 505.56C2397.49 504.973 2398.99 504.68 2400.64 504.68C2403.47 504.68 2405.69 505.387 2407.32 506.8C2408.95 508.213 2409.76 510.213 2409.76 512.8V525H2405.4L2404.92 521.8C2404.33 522.867 2403.51 523.747 2402.44 524.44C2401.4 525.133 2400.05 525.48 2398.4 525.48ZM2399.56 521.48C2401.03 521.48 2402.16 521 2402.96 520.04C2403.79 519.08 2404.31 517.893 2404.52 516.48H2400.16C2398.8 516.48 2397.83 516.733 2397.24 517.24C2396.65 517.72 2396.36 518.32 2396.36 519.04C2396.36 519.813 2396.65 520.413 2397.24 520.84C2397.83 521.267 2398.6 521.48 2399.56 521.48ZM2423.05 519.08C2422.09 519.08 2421.19 518.973 2420.37 518.76L2418.89 520.24C2419.34 520.48 2419.95 520.68 2420.73 520.84C2421.5 521 2422.75 521.16 2424.49 521.32C2427.13 521.56 2429.05 522.187 2430.25 523.2C2431.45 524.213 2432.05 525.613 2432.05 527.4C2432.05 528.573 2431.73 529.68 2431.09 530.72C2430.45 531.787 2429.46 532.64 2428.13 533.28C2426.79 533.947 2425.09 534.28 2423.01 534.28C2420.18 534.28 2417.9 533.747 2416.17 532.68C2414.43 531.64 2413.57 530.067 2413.57 527.96C2413.57 526.173 2414.43 524.627 2416.17 523.32C2415.63 523.08 2415.17 522.827 2414.77 522.56C2414.39 522.293 2414.06 522.013 2413.77 521.72V520.8L2417.25 517.12C2415.7 515.76 2414.93 514.013 2414.93 511.88C2414.93 510.547 2415.25 509.333 2415.89 508.24C2416.55 507.147 2417.49 506.28 2418.69 505.64C2419.89 505 2421.34 504.68 2423.05 504.68C2424.17 504.68 2425.21 504.84 2426.17 505.16H2433.69V508.28L2430.29 508.52C2430.82 509.533 2431.09 510.653 2431.09 511.88C2431.09 513.213 2430.77 514.427 2430.13 515.52C2429.49 516.613 2428.55 517.48 2427.33 518.12C2426.13 518.76 2424.7 519.08 2423.05 519.08ZM2423.05 515.16C2424.09 515.16 2424.94 514.88 2425.61 514.32C2426.3 513.76 2426.65 512.96 2426.65 511.92C2426.65 510.88 2426.3 510.08 2425.61 509.52C2424.94 508.96 2424.09 508.68 2423.05 508.68C2421.95 508.68 2421.07 508.96 2420.41 509.52C2419.74 510.08 2419.41 510.88 2419.41 511.92C2419.41 512.96 2419.74 513.76 2420.41 514.32C2421.07 514.88 2421.95 515.16 2423.05 515.16ZM2418.25 527.44C2418.25 528.427 2418.7 529.16 2419.61 529.64C2420.54 530.147 2421.67 530.4 2423.01 530.4C2424.29 530.4 2425.33 530.133 2426.13 529.6C2426.93 529.093 2427.33 528.4 2427.33 527.52C2427.33 526.8 2427.06 526.2 2426.53 525.72C2426.02 525.24 2424.99 524.947 2423.45 524.84C2422.35 524.76 2421.34 524.64 2420.41 524.48C2419.63 524.907 2419.07 525.373 2418.73 525.88C2418.41 526.387 2418.25 526.907 2418.25 527.44ZM2446.28 525.48C2444.28 525.48 2442.51 525.053 2440.96 524.2C2439.41 523.347 2438.2 522.147 2437.32 520.6C2436.44 519.053 2436 517.267 2436 515.24C2436 513.187 2436.43 511.36 2437.28 509.76C2438.16 508.16 2439.36 506.92 2440.88 506.04C2442.43 505.133 2444.24 504.68 2446.32 504.68C2448.27 504.68 2449.99 505.107 2451.48 505.96C2452.97 506.813 2454.13 507.987 2454.96 509.48C2455.81 510.947 2456.24 512.587 2456.24 514.4C2456.24 514.693 2456.23 515 2456.2 515.32C2456.2 515.64 2456.19 515.973 2456.16 516.32H2441.08C2441.19 517.867 2441.72 519.08 2442.68 519.96C2443.67 520.84 2444.85 521.28 2446.24 521.28C2447.28 521.28 2448.15 521.053 2448.84 520.6C2449.56 520.12 2450.09 519.507 2450.44 518.76H2455.64C2455.27 520.013 2454.64 521.16 2453.76 522.2C2452.91 523.213 2451.84 524.013 2450.56 524.6C2449.31 525.187 2447.88 525.48 2446.28 525.48ZM2446.32 508.84C2445.07 508.84 2443.96 509.2 2443 509.92C2442.04 510.613 2441.43 511.68 2441.16 513.12H2451.04C2450.96 511.813 2450.48 510.773 2449.6 510C2448.72 509.227 2447.63 508.84 2446.32 508.84ZM2479.36 525.48C2477.52 525.48 2475.85 525.16 2474.36 524.52C2472.86 523.853 2471.66 522.84 2470.76 521.48C2469.85 520.12 2469.37 518.413 2469.32 516.36H2474.36C2474.38 517.72 2474.82 518.867 2475.68 519.8C2476.56 520.707 2477.78 521.16 2479.36 521.16C2480.85 521.16 2482 520.747 2482.8 519.92C2483.6 519.093 2484 518.053 2484 516.8C2484 515.333 2483.46 514.227 2482.4 513.48C2481.36 512.707 2480.01 512.32 2478.36 512.32H2476.28V508.12H2478.4C2479.76 508.12 2480.89 507.8 2481.8 507.16C2482.7 506.52 2483.16 505.573 2483.16 504.32C2483.16 503.28 2482.81 502.453 2482.12 501.84C2481.45 501.2 2480.52 500.88 2479.32 500.88C2478.01 500.88 2476.98 501.267 2476.24 502.04C2475.52 502.813 2475.12 503.76 2475.04 504.88H2470.04C2470.14 502.293 2471.04 500.253 2472.72 498.76C2474.42 497.267 2476.62 496.52 2479.32 496.52C2481.24 496.52 2482.85 496.867 2484.16 497.56C2485.49 498.227 2486.49 499.12 2487.16 500.24C2487.85 501.36 2488.2 502.6 2488.2 503.96C2488.2 505.533 2487.76 506.867 2486.88 507.96C2486.02 509.027 2484.96 509.747 2483.68 510.12C2485.25 510.44 2486.53 511.213 2487.52 512.44C2488.5 513.64 2489 515.16 2489 517C2489 518.547 2488.62 519.96 2487.88 521.24C2487.13 522.52 2486.04 523.547 2484.6 524.32C2483.18 525.093 2481.44 525.48 2479.36 525.48Z" fill="#646464"/>
</svg>
