<svg width="2692" height="606" viewBox="0 0 2692 606" fill="none" xmlns="http://www.w3.org/2000/svg">
<rect x="82" y="425" width="181" height="181" rx="90.5" fill="#999999"/>
<rect x="120" y="464" width="104" height="104" rx="52" fill="#C4C4C4"/>
<rect x="347" y="425" width="181" height="181" rx="90.5" fill="#999999"/>
<rect x="385" y="464" width="104" height="104" rx="52" fill="#C4C4C4"/>
<rect x="777" y="425" width="181" height="181" rx="90.5" fill="#999999"/>
<rect x="815" y="464" width="104" height="104" rx="52" fill="#C4C4C4"/>
<rect x="1042" y="425" width="181" height="181" rx="90.5" fill="#999999"/>
<rect x="1080" y="464" width="104" height="104" rx="52" fill="#C4C4C4"/>
<rect x="1471" y="425" width="181" height="181" rx="90.5" fill="#999999"/>
<rect x="1509" y="464" width="104" height="104" rx="52" fill="#C4C4C4"/>
<rect x="1736" y="425" width="181" height="181" rx="90.5" fill="#999999"/>
<rect x="1774" y="464" width="104" height="104" rx="52" fill="#C4C4C4"/>
<rect x="695.5" y="2.5" width="608" height="511" rx="47.5" fill="#E7E7E7" stroke="#C4C4C4" stroke-width="5"/>
<rect x="613" y="49" width="80" height="418" fill="#C4C4C4"/>
<rect x="1306" y="49" width="80" height="418" fill="#C4C4C4"/>
<mask id="path-16-inside-1_16_115" fill="white">
<path fill-rule="evenodd" clip-rule="evenodd" d="M613 50C613 22.3858 590.614 0 563 0H222.655C207.112 0 192.453 7.2285 182.99 19.5591L10.3345 244.534C3.63269 253.266 0 263.967 0 274.975V466C0 493.614 22.3858 516 50 516H563C590.614 516 613 493.614 613 466V258V50Z"/>
</mask>
<path fill-rule="evenodd" clip-rule="evenodd" d="M613 50C613 22.3858 590.614 0 563 0H222.655C207.112 0 192.453 7.2285 182.99 19.5591L10.3345 244.534C3.63269 253.266 0 263.967 0 274.975V466C0 493.614 22.3858 516 50 516H563C590.614 516 613 493.614 613 466V258V50Z" fill="#E7E7E7"/>
<path d="M10.3345 244.534L14.3011 247.578L10.3345 244.534ZM182.99 19.5591L179.023 16.515L182.99 19.5591ZM222.655 5H563V-5H222.655V5ZM14.3011 247.578L186.956 22.6032L179.023 16.515L6.36799 241.49L14.3011 247.578ZM5 466V274.975H-5V466H5ZM563 511H50V521H563V511ZM608 258V466H618V258H608ZM608 50V258H618V50H608ZM563 521C593.376 521 618 496.376 618 466H608C608 490.853 587.853 511 563 511V521ZM-5 466C-5 496.376 19.6244 521 50 521V511C25.1472 511 5 490.853 5 466H-5ZM6.36799 241.49C-1.00404 251.096 -5 262.866 -5 274.975H5C5 265.068 8.26942 255.437 14.3011 247.578L6.36799 241.49ZM563 5C587.853 5 608 25.1472 608 50H618C618 19.6243 593.376 -5 563 -5V5ZM222.655 -5C205.557 -5 189.432 2.95135 179.023 16.515L186.956 22.6032C195.473 11.5056 208.666 5 222.655 5V-5Z" fill="#C4C4C4" mask="url(#path-16-inside-1_16_115)"/>
<rect x="1388.5" y="2.5" width="608" height="511" rx="47.5" fill="#E7E7E7" stroke="#C4C4C4" stroke-width="5"/>
<path d="M233.848 35.5H557C566.665 35.5 574.5 43.335 574.5 53V250C574.5 259.665 566.665 267.5 557 267.5H89.456C75.1237 267.5 66.8686 251.214 75.3414 239.655L219.733 42.6546C223.03 38.1573 228.272 35.5 233.848 35.5Z" fill="#C6E3F3" stroke="#C4C4C4" stroke-width="5"/>
<rect x="731.5" y="35.5" width="252" height="232" rx="27.5" fill="#C6E3F3" stroke="#C4C4C4" stroke-width="5"/>
<rect x="1022.5" y="35.5" width="246" height="232" rx="27.5" fill="#C6E3F3" stroke="#C4C4C4" stroke-width="5"/>
<rect x="1423.5" y="35.5" width="252" height="232" rx="27.5" fill="#C6E3F3" stroke="#C4C4C4" stroke-width="5"/>
<rect x="1714.5" y="35.5" width="246" height="232" rx="27.5" fill="#C6E3F3" stroke="#C4C4C4" stroke-width="5"/>
<rect x="2164" y="425" width="181" height="181" rx="90.5" fill="#999999"/>
<rect x="2202" y="464" width="104" height="104" rx="52" fill="#C4C4C4"/>
<rect x="2429" y="425" width="181" height="181" rx="90.5" fill="#999999"/>
<rect x="2467" y="464" width="104" height="104" rx="52" fill="#C4C4C4"/>
<rect x="1999" y="49" width="80" height="418" fill="#C4C4C4"/>
<rect x="2081.5" y="2.5" width="608" height="511" rx="47.5" fill="#E7E7E7" stroke="#C4C4C4" stroke-width="5"/>
<rect x="2116.5" y="35.5" width="252" height="232" rx="27.5" fill="#C6E3F3" stroke="#C4C4C4" stroke-width="5"/>
<rect x="2407.5" y="35.5" width="246" height="232" rx="27.5" fill="#C6E3F3" stroke="#C4C4C4" stroke-width="5"/>
<path d="M923.4 462.48C920.573 462.48 918.147 461.88 916.12 460.68C914.093 459.453 912.533 457.76 911.44 455.6C910.347 453.413 909.8 450.893 909.8 448.04C909.8 445.187 910.347 442.667 911.44 440.48C912.533 438.293 914.093 436.587 916.12 435.36C918.147 434.133 920.573 433.52 923.4 433.52C926.76 433.52 929.507 434.36 931.64 436.04C933.8 437.693 935.147 440.027 935.68 443.04H930.04C929.693 441.52 928.947 440.333 927.8 439.48C926.68 438.6 925.187 438.16 923.32 438.16C920.733 438.16 918.707 439.04 917.24 440.8C915.773 442.56 915.04 444.973 915.04 448.04C915.04 451.107 915.773 453.52 917.24 455.28C918.707 457.013 920.733 457.88 923.32 457.88C925.187 457.88 926.68 457.48 927.8 456.68C928.947 455.853 929.693 454.72 930.04 453.28H935.68C935.147 456.16 933.8 458.413 931.64 460.04C929.507 461.667 926.76 462.48 923.4 462.48ZM946.932 462.48C945.226 462.48 943.826 462.213 942.732 461.68C941.639 461.12 940.826 460.387 940.292 459.48C939.759 458.573 939.492 457.573 939.492 456.48C939.492 454.64 940.212 453.147 941.652 452C943.092 450.853 945.252 450.28 948.132 450.28H953.172V449.8C953.172 448.44 952.786 447.44 952.012 446.8C951.239 446.16 950.279 445.84 949.132 445.84C948.092 445.84 947.186 446.093 946.412 446.6C945.639 447.08 945.159 447.8 944.972 448.76H939.972C940.106 447.32 940.586 446.067 941.412 445C942.266 443.933 943.359 443.12 944.692 442.56C946.026 441.973 947.519 441.68 949.172 441.68C951.999 441.68 954.226 442.387 955.852 443.8C957.479 445.213 958.292 447.213 958.292 449.8V462H953.932L953.452 458.8C952.866 459.867 952.039 460.747 950.972 461.44C949.932 462.133 948.586 462.48 946.932 462.48ZM948.092 458.48C949.559 458.48 950.692 458 951.492 457.04C952.319 456.08 952.839 454.893 953.052 453.48H948.692C947.332 453.48 946.359 453.733 945.772 454.24C945.186 454.72 944.892 455.32 944.892 456.04C944.892 456.813 945.186 457.413 945.772 457.84C946.359 458.267 947.132 458.48 948.092 458.48ZM963.178 462V442.16H967.738L968.218 445.88C968.938 444.6 969.911 443.587 971.138 442.84C972.391 442.067 973.858 441.68 975.538 441.68V447.08H974.098C972.978 447.08 971.978 447.253 971.098 447.6C970.218 447.947 969.525 448.547 969.018 449.4C968.538 450.253 968.298 451.44 968.298 452.96V462H963.178ZM979.038 462V442.16H983.598L984.078 445.88C984.798 444.6 985.771 443.587 986.997 442.84C988.251 442.067 989.718 441.68 991.398 441.68V447.08H989.958C988.838 447.08 987.838 447.253 986.958 447.6C986.078 447.947 985.384 448.547 984.878 449.4C984.398 450.253 984.158 451.44 984.158 452.96V462H979.038ZM997.657 439.08C996.724 439.08 995.95 438.8 995.337 438.24C994.75 437.68 994.457 436.973 994.457 436.12C994.457 435.267 994.75 434.573 995.337 434.04C995.95 433.48 996.724 433.2 997.657 433.2C998.59 433.2 999.35 433.48 999.937 434.04C1000.55 434.573 1000.86 435.267 1000.86 436.12C1000.86 436.973 1000.55 437.68 999.937 438.24C999.35 438.8 998.59 439.08 997.657 439.08ZM995.097 462V442.16H1000.22V462H995.097ZM1012.4 462.48C1010.69 462.48 1009.29 462.213 1008.2 461.68C1007.11 461.12 1006.29 460.387 1005.76 459.48C1005.23 458.573 1004.96 457.573 1004.96 456.48C1004.96 454.64 1005.68 453.147 1007.12 452C1008.56 450.853 1010.72 450.28 1013.6 450.28H1018.64V449.8C1018.64 448.44 1018.25 447.44 1017.48 446.8C1016.71 446.16 1015.75 445.84 1014.6 445.84C1013.56 445.84 1012.65 446.093 1011.88 446.6C1011.11 447.08 1010.63 447.8 1010.44 448.76H1005.44C1005.57 447.32 1006.05 446.067 1006.88 445C1007.73 443.933 1008.83 443.12 1010.16 442.56C1011.49 441.973 1012.99 441.68 1014.64 441.68C1017.47 441.68 1019.69 442.387 1021.32 443.8C1022.95 445.213 1023.76 447.213 1023.76 449.8V462H1019.4L1018.92 458.8C1018.33 459.867 1017.51 460.747 1016.44 461.44C1015.4 462.133 1014.05 462.48 1012.4 462.48ZM1013.56 458.48C1015.03 458.48 1016.16 458 1016.96 457.04C1017.79 456.08 1018.31 454.893 1018.52 453.48H1014.16C1012.8 453.48 1011.83 453.733 1011.24 454.24C1010.65 454.72 1010.36 455.32 1010.36 456.04C1010.36 456.813 1010.65 457.413 1011.24 457.84C1011.83 458.267 1012.6 458.48 1013.56 458.48ZM1037.05 456.08C1036.09 456.08 1035.19 455.973 1034.37 455.76L1032.89 457.24C1033.34 457.48 1033.95 457.68 1034.73 457.84C1035.5 458 1036.75 458.16 1038.49 458.32C1041.13 458.56 1043.05 459.187 1044.25 460.2C1045.45 461.213 1046.05 462.613 1046.05 464.4C1046.05 465.573 1045.73 466.68 1045.09 467.72C1044.45 468.787 1043.46 469.64 1042.13 470.28C1040.79 470.947 1039.09 471.28 1037.01 471.28C1034.18 471.28 1031.9 470.747 1030.17 469.68C1028.43 468.64 1027.57 467.067 1027.57 464.96C1027.57 463.173 1028.43 461.627 1030.17 460.32C1029.63 460.08 1029.17 459.827 1028.77 459.56C1028.39 459.293 1028.06 459.013 1027.77 458.72V457.8L1031.25 454.12C1029.7 452.76 1028.93 451.013 1028.93 448.88C1028.93 447.547 1029.25 446.333 1029.89 445.24C1030.55 444.147 1031.49 443.28 1032.69 442.64C1033.89 442 1035.34 441.68 1037.05 441.68C1038.17 441.68 1039.21 441.84 1040.17 442.16H1047.69V445.28L1044.29 445.52C1044.82 446.533 1045.09 447.653 1045.09 448.88C1045.09 450.213 1044.77 451.427 1044.13 452.52C1043.49 453.613 1042.55 454.48 1041.33 455.12C1040.13 455.76 1038.7 456.08 1037.05 456.08ZM1037.05 452.16C1038.09 452.16 1038.94 451.88 1039.61 451.32C1040.3 450.76 1040.65 449.96 1040.65 448.92C1040.65 447.88 1040.3 447.08 1039.61 446.52C1038.94 445.96 1038.09 445.68 1037.05 445.68C1035.95 445.68 1035.07 445.96 1034.41 446.52C1033.74 447.08 1033.41 447.88 1033.41 448.92C1033.41 449.96 1033.74 450.76 1034.41 451.32C1035.07 451.88 1035.95 452.16 1037.05 452.16ZM1032.25 464.44C1032.25 465.427 1032.7 466.16 1033.61 466.64C1034.54 467.147 1035.67 467.4 1037.01 467.4C1038.29 467.4 1039.33 467.133 1040.13 466.6C1040.93 466.093 1041.33 465.4 1041.33 464.52C1041.33 463.8 1041.06 463.2 1040.53 462.72C1040.02 462.24 1038.99 461.947 1037.45 461.84C1036.35 461.76 1035.34 461.64 1034.41 461.48C1033.63 461.907 1033.07 462.373 1032.73 462.88C1032.41 463.387 1032.25 463.907 1032.25 464.44ZM1060.28 462.48C1058.28 462.48 1056.51 462.053 1054.96 461.2C1053.41 460.347 1052.2 459.147 1051.32 457.6C1050.44 456.053 1050 454.267 1050 452.24C1050 450.187 1050.43 448.36 1051.28 446.76C1052.16 445.16 1053.36 443.92 1054.88 443.04C1056.43 442.133 1058.24 441.68 1060.32 441.68C1062.27 441.68 1063.99 442.107 1065.48 442.96C1066.97 443.813 1068.13 444.987 1068.96 446.48C1069.81 447.947 1070.24 449.587 1070.24 451.4C1070.24 451.693 1070.23 452 1070.2 452.32C1070.2 452.64 1070.19 452.973 1070.16 453.32H1055.08C1055.19 454.867 1055.72 456.08 1056.68 456.96C1057.67 457.84 1058.85 458.28 1060.24 458.28C1061.28 458.28 1062.15 458.053 1062.84 457.6C1063.56 457.12 1064.09 456.507 1064.44 455.76H1069.64C1069.27 457.013 1068.64 458.16 1067.76 459.2C1066.91 460.213 1065.84 461.013 1064.56 461.6C1063.31 462.187 1061.88 462.48 1060.28 462.48ZM1060.32 445.84C1059.07 445.84 1057.96 446.2 1057 446.92C1056.04 447.613 1055.43 448.68 1055.16 450.12H1065.04C1064.96 448.813 1064.48 447.773 1063.6 447C1062.72 446.227 1061.63 445.84 1060.32 445.84ZM1087.24 462V439.84L1082.64 440.92V437L1089.4 434H1092.56V462H1087.24Z" fill="#646464"/>
<path d="M242.72 460V432H261V436.12H247.84V443.8H259.8V447.8H247.84V455.88H261V460H242.72ZM265.725 460V440.16H270.245L270.645 443.52C271.258 442.347 272.138 441.413 273.285 440.72C274.458 440.027 275.832 439.68 277.405 439.68C279.858 439.68 281.765 440.453 283.125 442C284.485 443.547 285.165 445.813 285.165 448.8V460H280.045V449.28C280.045 447.573 279.698 446.267 279.005 445.36C278.312 444.453 277.232 444 275.765 444C274.325 444 273.138 444.507 272.205 445.52C271.298 446.533 270.845 447.947 270.845 449.76V460H265.725ZM298.461 454.08C297.501 454.08 296.608 453.973 295.781 453.76L294.301 455.24C294.754 455.48 295.368 455.68 296.141 455.84C296.914 456 298.168 456.16 299.901 456.32C302.541 456.56 304.461 457.187 305.661 458.2C306.861 459.213 307.461 460.613 307.461 462.4C307.461 463.573 307.141 464.68 306.501 465.72C305.861 466.787 304.874 467.64 303.541 468.28C302.208 468.947 300.501 469.28 298.421 469.28C295.594 469.28 293.314 468.747 291.581 467.68C289.848 466.64 288.981 465.067 288.981 462.96C288.981 461.173 289.848 459.627 291.581 458.32C291.048 458.08 290.581 457.827 290.181 457.56C289.808 457.293 289.474 457.013 289.181 456.72V455.8L292.661 452.12C291.114 450.76 290.341 449.013 290.341 446.88C290.341 445.547 290.661 444.333 291.301 443.24C291.968 442.147 292.901 441.28 294.101 440.64C295.301 440 296.754 439.68 298.461 439.68C299.581 439.68 300.621 439.84 301.581 440.16H309.101V443.28L305.701 443.52C306.234 444.533 306.501 445.653 306.501 446.88C306.501 448.213 306.181 449.427 305.541 450.52C304.901 451.613 303.968 452.48 302.741 453.12C301.541 453.76 300.114 454.08 298.461 454.08ZM298.461 450.16C299.501 450.16 300.354 449.88 301.021 449.32C301.714 448.76 302.061 447.96 302.061 446.92C302.061 445.88 301.714 445.08 301.021 444.52C300.354 443.96 299.501 443.68 298.461 443.68C297.368 443.68 296.488 443.96 295.821 444.52C295.154 445.08 294.821 445.88 294.821 446.92C294.821 447.96 295.154 448.76 295.821 449.32C296.488 449.88 297.368 450.16 298.461 450.16ZM293.661 462.44C293.661 463.427 294.114 464.16 295.021 464.64C295.954 465.147 297.088 465.4 298.421 465.4C299.701 465.4 300.741 465.133 301.541 464.6C302.341 464.093 302.741 463.4 302.741 462.52C302.741 461.8 302.474 461.2 301.941 460.72C301.434 460.24 300.408 459.947 298.861 459.84C297.768 459.76 296.754 459.64 295.821 459.48C295.048 459.907 294.488 460.373 294.141 460.88C293.821 461.387 293.661 461.907 293.661 462.44ZM315.594 437.08C314.661 437.08 313.888 436.8 313.274 436.24C312.688 435.68 312.394 434.973 312.394 434.12C312.394 433.267 312.688 432.573 313.274 432.04C313.888 431.48 314.661 431.2 315.594 431.2C316.528 431.2 317.288 431.48 317.874 432.04C318.488 432.573 318.794 433.267 318.794 434.12C318.794 434.973 318.488 435.68 317.874 436.24C317.288 436.8 316.528 437.08 315.594 437.08ZM313.034 460V440.16H318.154V460H313.034ZM323.498 460V440.16H328.018L328.418 443.52C329.032 442.347 329.912 441.413 331.058 440.72C332.232 440.027 333.605 439.68 335.178 439.68C337.632 439.68 339.538 440.453 340.898 442C342.258 443.547 342.938 445.813 342.938 448.8V460H337.818V449.28C337.818 447.573 337.472 446.267 336.778 445.36C336.085 444.453 335.005 444 333.538 444C332.098 444 330.912 444.507 329.978 445.52C329.072 446.533 328.618 447.947 328.618 449.76V460H323.498ZM357.474 460.48C355.474 460.48 353.701 460.053 352.154 459.2C350.608 458.347 349.394 457.147 348.514 455.6C347.634 454.053 347.194 452.267 347.194 450.24C347.194 448.187 347.621 446.36 348.474 444.76C349.354 443.16 350.554 441.92 352.074 441.04C353.621 440.133 355.434 439.68 357.514 439.68C359.461 439.68 361.181 440.107 362.674 440.96C364.168 441.813 365.328 442.987 366.154 444.48C367.008 445.947 367.434 447.587 367.434 449.4C367.434 449.693 367.421 450 367.394 450.32C367.394 450.64 367.381 450.973 367.354 451.32H352.274C352.381 452.867 352.914 454.08 353.874 454.96C354.861 455.84 356.048 456.28 357.434 456.28C358.474 456.28 359.341 456.053 360.034 455.6C360.754 455.12 361.288 454.507 361.634 453.76H366.834C366.461 455.013 365.834 456.16 364.954 457.2C364.101 458.213 363.034 459.013 361.754 459.6C360.501 460.187 359.074 460.48 357.474 460.48ZM357.514 443.84C356.261 443.84 355.154 444.2 354.194 444.92C353.234 445.613 352.621 446.68 352.354 448.12H362.234C362.154 446.813 361.674 445.773 360.794 445C359.914 444.227 358.821 443.84 357.514 443.84Z" fill="#646464"/>
<path d="M1622.4 465.48C1619.57 465.48 1617.15 464.88 1615.12 463.68C1613.09 462.453 1611.53 460.76 1610.44 458.6C1609.35 456.413 1608.8 453.893 1608.8 451.04C1608.8 448.187 1609.35 445.667 1610.44 443.48C1611.53 441.293 1613.09 439.587 1615.12 438.36C1617.15 437.133 1619.57 436.52 1622.4 436.52C1625.76 436.52 1628.51 437.36 1630.64 439.04C1632.8 440.693 1634.15 443.027 1634.68 446.04H1629.04C1628.69 444.52 1627.95 443.333 1626.8 442.48C1625.68 441.6 1624.19 441.16 1622.32 441.16C1619.73 441.16 1617.71 442.04 1616.24 443.8C1614.77 445.56 1614.04 447.973 1614.04 451.04C1614.04 454.107 1614.77 456.52 1616.24 458.28C1617.71 460.013 1619.73 460.88 1622.32 460.88C1624.19 460.88 1625.68 460.48 1626.8 459.68C1627.95 458.853 1628.69 457.72 1629.04 456.28H1634.68C1634.15 459.16 1632.8 461.413 1630.64 463.04C1628.51 464.667 1625.76 465.48 1622.4 465.48ZM1645.93 465.48C1644.23 465.48 1642.83 465.213 1641.73 464.68C1640.64 464.12 1639.83 463.387 1639.29 462.48C1638.76 461.573 1638.49 460.573 1638.49 459.48C1638.49 457.64 1639.21 456.147 1640.65 455C1642.09 453.853 1644.25 453.28 1647.13 453.28H1652.17V452.8C1652.17 451.44 1651.79 450.44 1651.01 449.8C1650.24 449.16 1649.28 448.84 1648.13 448.84C1647.09 448.84 1646.19 449.093 1645.41 449.6C1644.64 450.08 1644.16 450.8 1643.97 451.76H1638.97C1639.11 450.32 1639.59 449.067 1640.41 448C1641.27 446.933 1642.36 446.12 1643.69 445.56C1645.03 444.973 1646.52 444.68 1648.17 444.68C1651 444.68 1653.23 445.387 1654.85 446.8C1656.48 448.213 1657.29 450.213 1657.29 452.8V465H1652.93L1652.45 461.8C1651.87 462.867 1651.04 463.747 1649.97 464.44C1648.93 465.133 1647.59 465.48 1645.93 465.48ZM1647.09 461.48C1648.56 461.48 1649.69 461 1650.49 460.04C1651.32 459.08 1651.84 457.893 1652.05 456.48H1647.69C1646.33 456.48 1645.36 456.733 1644.77 457.24C1644.19 457.72 1643.89 458.32 1643.89 459.04C1643.89 459.813 1644.19 460.413 1644.77 460.84C1645.36 461.267 1646.13 461.48 1647.09 461.48ZM1662.18 465V445.16H1666.74L1667.22 448.88C1667.94 447.6 1668.91 446.587 1670.14 445.84C1671.39 445.067 1672.86 444.68 1674.54 444.68V450.08H1673.1C1671.98 450.08 1670.98 450.253 1670.1 450.6C1669.22 450.947 1668.52 451.547 1668.02 452.4C1667.54 453.253 1667.3 454.44 1667.3 455.96V465H1662.18ZM1678.04 465V445.16H1682.6L1683.08 448.88C1683.8 447.6 1684.77 446.587 1686 445.84C1687.25 445.067 1688.72 444.68 1690.4 444.68V450.08H1688.96C1687.84 450.08 1686.84 450.253 1685.96 450.6C1685.08 450.947 1684.38 451.547 1683.88 452.4C1683.4 453.253 1683.16 454.44 1683.16 455.96V465H1678.04ZM1696.66 442.08C1695.72 442.08 1694.95 441.8 1694.34 441.24C1693.75 440.68 1693.46 439.973 1693.46 439.12C1693.46 438.267 1693.75 437.573 1694.34 437.04C1694.95 436.48 1695.72 436.2 1696.66 436.2C1697.59 436.2 1698.35 436.48 1698.94 437.04C1699.55 437.573 1699.86 438.267 1699.86 439.12C1699.86 439.973 1699.55 440.68 1698.94 441.24C1698.35 441.8 1697.59 442.08 1696.66 442.08ZM1694.1 465V445.16H1699.22V465H1694.1ZM1711.4 465.48C1709.69 465.48 1708.29 465.213 1707.2 464.68C1706.11 464.12 1705.29 463.387 1704.76 462.48C1704.23 461.573 1703.96 460.573 1703.96 459.48C1703.96 457.64 1704.68 456.147 1706.12 455C1707.56 453.853 1709.72 453.28 1712.6 453.28H1717.64V452.8C1717.64 451.44 1717.25 450.44 1716.48 449.8C1715.71 449.16 1714.75 448.84 1713.6 448.84C1712.56 448.84 1711.65 449.093 1710.88 449.6C1710.11 450.08 1709.63 450.8 1709.44 451.76H1704.44C1704.57 450.32 1705.05 449.067 1705.88 448C1706.73 446.933 1707.83 446.12 1709.16 445.56C1710.49 444.973 1711.99 444.68 1713.64 444.68C1716.47 444.68 1718.69 445.387 1720.32 446.8C1721.95 448.213 1722.76 450.213 1722.76 452.8V465H1718.4L1717.92 461.8C1717.33 462.867 1716.51 463.747 1715.44 464.44C1714.4 465.133 1713.05 465.48 1711.4 465.48ZM1712.56 461.48C1714.03 461.48 1715.16 461 1715.96 460.04C1716.79 459.08 1717.31 457.893 1717.52 456.48H1713.16C1711.8 456.48 1710.83 456.733 1710.24 457.24C1709.65 457.72 1709.36 458.32 1709.36 459.04C1709.36 459.813 1709.65 460.413 1710.24 460.84C1710.83 461.267 1711.6 461.48 1712.56 461.48ZM1736.05 459.08C1735.09 459.08 1734.19 458.973 1733.37 458.76L1731.89 460.24C1732.34 460.48 1732.95 460.68 1733.73 460.84C1734.5 461 1735.75 461.16 1737.49 461.32C1740.13 461.56 1742.05 462.187 1743.25 463.2C1744.45 464.213 1745.05 465.613 1745.05 467.4C1745.05 468.573 1744.73 469.68 1744.09 470.72C1743.45 471.787 1742.46 472.64 1741.13 473.28C1739.79 473.947 1738.09 474.28 1736.01 474.28C1733.18 474.28 1730.9 473.747 1729.17 472.68C1727.43 471.64 1726.57 470.067 1726.57 467.96C1726.57 466.173 1727.43 464.627 1729.17 463.32C1728.63 463.08 1728.17 462.827 1727.77 462.56C1727.39 462.293 1727.06 462.013 1726.77 461.72V460.8L1730.25 457.12C1728.7 455.76 1727.93 454.013 1727.93 451.88C1727.93 450.547 1728.25 449.333 1728.89 448.24C1729.55 447.147 1730.49 446.28 1731.69 445.64C1732.89 445 1734.34 444.68 1736.05 444.68C1737.17 444.68 1738.21 444.84 1739.17 445.16H1746.69V448.28L1743.29 448.52C1743.82 449.533 1744.09 450.653 1744.09 451.88C1744.09 453.213 1743.77 454.427 1743.13 455.52C1742.49 456.613 1741.55 457.48 1740.33 458.12C1739.13 458.76 1737.7 459.08 1736.05 459.08ZM1736.05 455.16C1737.09 455.16 1737.94 454.88 1738.61 454.32C1739.3 453.76 1739.65 452.96 1739.65 451.92C1739.65 450.88 1739.3 450.08 1738.61 449.52C1737.94 448.96 1737.09 448.68 1736.05 448.68C1734.95 448.68 1734.07 448.96 1733.41 449.52C1732.74 450.08 1732.41 450.88 1732.41 451.92C1732.41 452.96 1732.74 453.76 1733.41 454.32C1734.07 454.88 1734.95 455.16 1736.05 455.16ZM1731.25 467.44C1731.25 468.427 1731.7 469.16 1732.61 469.64C1733.54 470.147 1734.67 470.4 1736.01 470.4C1737.29 470.4 1738.33 470.133 1739.13 469.6C1739.93 469.093 1740.33 468.4 1740.33 467.52C1740.33 466.8 1740.06 466.2 1739.53 465.72C1739.02 465.24 1737.99 464.947 1736.45 464.84C1735.35 464.76 1734.34 464.64 1733.41 464.48C1732.63 464.907 1732.07 465.373 1731.73 465.88C1731.41 466.387 1731.25 466.907 1731.25 467.44ZM1759.28 465.48C1757.28 465.48 1755.51 465.053 1753.96 464.2C1752.41 463.347 1751.2 462.147 1750.32 460.6C1749.44 459.053 1749 457.267 1749 455.24C1749 453.187 1749.43 451.36 1750.28 449.76C1751.16 448.16 1752.36 446.92 1753.88 446.04C1755.43 445.133 1757.24 444.68 1759.32 444.68C1761.27 444.68 1762.99 445.107 1764.48 445.96C1765.97 446.813 1767.13 447.987 1767.96 449.48C1768.81 450.947 1769.24 452.587 1769.24 454.4C1769.24 454.693 1769.23 455 1769.2 455.32C1769.2 455.64 1769.19 455.973 1769.16 456.32H1754.08C1754.19 457.867 1754.72 459.08 1755.68 459.96C1756.67 460.84 1757.85 461.28 1759.24 461.28C1760.28 461.28 1761.15 461.053 1761.84 460.6C1762.56 460.12 1763.09 459.507 1763.44 458.76H1768.64C1768.27 460.013 1767.64 461.16 1766.76 462.2C1765.91 463.213 1764.84 464.013 1763.56 464.6C1762.31 465.187 1760.88 465.48 1759.28 465.48ZM1759.32 448.84C1758.07 448.84 1756.96 449.2 1756 449.92C1755.04 450.613 1754.43 451.68 1754.16 453.12H1764.04C1763.96 451.813 1763.48 450.773 1762.6 450C1761.72 449.227 1760.63 448.84 1759.32 448.84ZM1782.52 465V461.28C1784.22 459.867 1785.88 458.467 1787.48 457.08C1789.1 455.693 1790.54 454.32 1791.8 452.96C1793.08 451.6 1794.09 450.28 1794.84 449C1795.61 447.693 1796 446.427 1796 445.2C1796 444.053 1795.68 443.04 1795.04 442.16C1794.42 441.28 1793.4 440.84 1791.96 440.84C1790.49 440.84 1789.38 441.32 1788.64 442.28C1787.89 443.24 1787.52 444.4 1787.52 445.76H1782.56C1782.61 443.707 1783.06 442 1783.92 440.64C1784.77 439.253 1785.9 438.227 1787.32 437.56C1788.73 436.867 1790.32 436.52 1792.08 436.52C1794.93 436.52 1797.14 437.307 1798.72 438.88C1800.32 440.427 1801.12 442.44 1801.12 444.92C1801.12 446.467 1800.76 447.973 1800.04 449.44C1799.34 450.907 1798.42 452.32 1797.28 453.68C1796.13 455.04 1794.89 456.32 1793.56 457.52C1792.22 458.693 1790.93 459.787 1789.68 460.8H1801.8V465H1782.52Z" fill="#646464"/>
<path d="M2309.4 465.48C2306.57 465.48 2304.15 464.88 2302.12 463.68C2300.09 462.453 2298.53 460.76 2297.44 458.6C2296.35 456.413 2295.8 453.893 2295.8 451.04C2295.8 448.187 2296.35 445.667 2297.44 443.48C2298.53 441.293 2300.09 439.587 2302.12 438.36C2304.15 437.133 2306.57 436.52 2309.4 436.52C2312.76 436.52 2315.51 437.36 2317.64 439.04C2319.8 440.693 2321.15 443.027 2321.68 446.04H2316.04C2315.69 444.52 2314.95 443.333 2313.8 442.48C2312.68 441.6 2311.19 441.16 2309.32 441.16C2306.73 441.16 2304.71 442.04 2303.24 443.8C2301.77 445.56 2301.04 447.973 2301.04 451.04C2301.04 454.107 2301.77 456.52 2303.24 458.28C2304.71 460.013 2306.73 460.88 2309.32 460.88C2311.19 460.88 2312.68 460.48 2313.8 459.68C2314.95 458.853 2315.69 457.72 2316.04 456.28H2321.68C2321.15 459.16 2319.8 461.413 2317.64 463.04C2315.51 464.667 2312.76 465.48 2309.4 465.48ZM2332.93 465.48C2331.23 465.48 2329.83 465.213 2328.73 464.68C2327.64 464.12 2326.83 463.387 2326.29 462.48C2325.76 461.573 2325.49 460.573 2325.49 459.48C2325.49 457.64 2326.21 456.147 2327.65 455C2329.09 453.853 2331.25 453.28 2334.13 453.28H2339.17V452.8C2339.17 451.44 2338.79 450.44 2338.01 449.8C2337.24 449.16 2336.28 448.84 2335.13 448.84C2334.09 448.84 2333.19 449.093 2332.41 449.6C2331.64 450.08 2331.16 450.8 2330.97 451.76H2325.97C2326.11 450.32 2326.59 449.067 2327.41 448C2328.27 446.933 2329.36 446.12 2330.69 445.56C2332.03 444.973 2333.52 444.68 2335.17 444.68C2338 444.68 2340.23 445.387 2341.85 446.8C2343.48 448.213 2344.29 450.213 2344.29 452.8V465H2339.93L2339.45 461.8C2338.87 462.867 2338.04 463.747 2336.97 464.44C2335.93 465.133 2334.59 465.48 2332.93 465.48ZM2334.09 461.48C2335.56 461.48 2336.69 461 2337.49 460.04C2338.32 459.08 2338.84 457.893 2339.05 456.48H2334.69C2333.33 456.48 2332.36 456.733 2331.77 457.24C2331.19 457.72 2330.89 458.32 2330.89 459.04C2330.89 459.813 2331.19 460.413 2331.77 460.84C2332.36 461.267 2333.13 461.48 2334.09 461.48ZM2349.18 465V445.16H2353.74L2354.22 448.88C2354.94 447.6 2355.91 446.587 2357.14 445.84C2358.39 445.067 2359.86 444.68 2361.54 444.68V450.08H2360.1C2358.98 450.08 2357.98 450.253 2357.1 450.6C2356.22 450.947 2355.52 451.547 2355.02 452.4C2354.54 453.253 2354.3 454.44 2354.3 455.96V465H2349.18ZM2365.04 465V445.16H2369.6L2370.08 448.88C2370.8 447.6 2371.77 446.587 2373 445.84C2374.25 445.067 2375.72 444.68 2377.4 444.68V450.08H2375.96C2374.84 450.08 2373.84 450.253 2372.96 450.6C2372.08 450.947 2371.38 451.547 2370.88 452.4C2370.4 453.253 2370.16 454.44 2370.16 455.96V465H2365.04ZM2383.66 442.08C2382.72 442.08 2381.95 441.8 2381.34 441.24C2380.75 440.68 2380.46 439.973 2380.46 439.12C2380.46 438.267 2380.75 437.573 2381.34 437.04C2381.95 436.48 2382.72 436.2 2383.66 436.2C2384.59 436.2 2385.35 436.48 2385.94 437.04C2386.55 437.573 2386.86 438.267 2386.86 439.12C2386.86 439.973 2386.55 440.68 2385.94 441.24C2385.35 441.8 2384.59 442.08 2383.66 442.08ZM2381.1 465V445.16H2386.22V465H2381.1ZM2398.4 465.48C2396.69 465.48 2395.29 465.213 2394.2 464.68C2393.11 464.12 2392.29 463.387 2391.76 462.48C2391.23 461.573 2390.96 460.573 2390.96 459.48C2390.96 457.64 2391.68 456.147 2393.12 455C2394.56 453.853 2396.72 453.28 2399.6 453.28H2404.64V452.8C2404.64 451.44 2404.25 450.44 2403.48 449.8C2402.71 449.16 2401.75 448.84 2400.6 448.84C2399.56 448.84 2398.65 449.093 2397.88 449.6C2397.11 450.08 2396.63 450.8 2396.44 451.76H2391.44C2391.57 450.32 2392.05 449.067 2392.88 448C2393.73 446.933 2394.83 446.12 2396.16 445.56C2397.49 444.973 2398.99 444.68 2400.64 444.68C2403.47 444.68 2405.69 445.387 2407.32 446.8C2408.95 448.213 2409.76 450.213 2409.76 452.8V465H2405.4L2404.92 461.8C2404.33 462.867 2403.51 463.747 2402.44 464.44C2401.4 465.133 2400.05 465.48 2398.4 465.48ZM2399.56 461.48C2401.03 461.48 2402.16 461 2402.96 460.04C2403.79 459.08 2404.31 457.893 2404.52 456.48H2400.16C2398.8 456.48 2397.83 456.733 2397.24 457.24C2396.65 457.72 2396.36 458.32 2396.36 459.04C2396.36 459.813 2396.65 460.413 2397.24 460.84C2397.83 461.267 2398.6 461.48 2399.56 461.48ZM2423.05 459.08C2422.09 459.08 2421.19 458.973 2420.37 458.76L2418.89 460.24C2419.34 460.48 2419.95 460.68 2420.73 460.84C2421.5 461 2422.75 461.16 2424.49 461.32C2427.13 461.56 2429.05 462.187 2430.25 463.2C2431.45 464.213 2432.05 465.613 2432.05 467.4C2432.05 468.573 2431.73 469.68 2431.09 470.72C2430.45 471.787 2429.46 472.64 2428.13 473.28C2426.79 473.947 2425.09 474.28 2423.01 474.28C2420.18 474.28 2417.9 473.747 2416.17 472.68C2414.43 471.64 2413.57 470.067 2413.57 467.96C2413.57 466.173 2414.43 464.627 2416.17 463.32C2415.63 463.08 2415.17 462.827 2414.77 462.56C2414.39 462.293 2414.06 462.013 2413.77 461.72V460.8L2417.25 457.12C2415.7 455.76 2414.93 454.013 2414.93 451.88C2414.93 450.547 2415.25 449.333 2415.89 448.24C2416.55 447.147 2417.49 446.28 2418.69 445.64C2419.89 445 2421.34 444.68 2423.05 444.68C2424.17 444.68 2425.21 444.84 2426.17 445.16H2433.69V448.28L2430.29 448.52C2430.82 449.533 2431.09 450.653 2431.09 451.88C2431.09 453.213 2430.77 454.427 2430.13 455.52C2429.49 456.613 2428.55 457.48 2427.33 458.12C2426.13 458.76 2424.7 459.08 2423.05 459.08ZM2423.05 455.16C2424.09 455.16 2424.94 454.88 2425.61 454.32C2426.3 453.76 2426.65 452.96 2426.65 451.92C2426.65 450.88 2426.3 450.08 2425.61 449.52C2424.94 448.96 2424.09 448.68 2423.05 448.68C2421.95 448.68 2421.07 448.96 2420.41 449.52C2419.74 450.08 2419.41 450.88 2419.41 451.92C2419.41 452.96 2419.74 453.76 2420.41 454.32C2421.07 454.88 2421.95 455.16 2423.05 455.16ZM2418.25 467.44C2418.25 468.427 2418.7 469.16 2419.61 469.64C2420.54 470.147 2421.67 470.4 2423.01 470.4C2424.29 470.4 2425.33 470.133 2426.13 469.6C2426.93 469.093 2427.33 468.4 2427.33 467.52C2427.33 466.8 2427.06 466.2 2426.53 465.72C2426.02 465.24 2424.99 464.947 2423.45 464.84C2422.35 464.76 2421.34 464.64 2420.41 464.48C2419.63 464.907 2419.07 465.373 2418.73 465.88C2418.41 466.387 2418.25 466.907 2418.25 467.44ZM2446.28 465.48C2444.28 465.48 2442.51 465.053 2440.96 464.2C2439.41 463.347 2438.2 462.147 2437.32 460.6C2436.44 459.053 2436 457.267 2436 455.24C2436 453.187 2436.43 451.36 2437.28 449.76C2438.16 448.16 2439.36 446.92 2440.88 446.04C2442.43 445.133 2444.24 444.68 2446.32 444.68C2448.27 444.68 2449.99 445.107 2451.48 445.96C2452.97 446.813 2454.13 447.987 2454.96 449.48C2455.81 450.947 2456.24 452.587 2456.24 454.4C2456.24 454.693 2456.23 455 2456.2 455.32C2456.2 455.64 2456.19 455.973 2456.16 456.32H2441.08C2441.19 457.867 2441.72 459.08 2442.68 459.96C2443.67 460.84 2444.85 461.28 2446.24 461.28C2447.28 461.28 2448.15 461.053 2448.84 460.6C2449.56 460.12 2450.09 459.507 2450.44 458.76H2455.64C2455.27 460.013 2454.64 461.16 2453.76 462.2C2452.91 463.213 2451.84 464.013 2450.56 464.6C2449.31 465.187 2447.88 465.48 2446.28 465.48ZM2446.32 448.84C2445.07 448.84 2443.96 449.2 2443 449.92C2442.04 450.613 2441.43 451.68 2441.16 453.12H2451.04C2450.96 451.813 2450.48 450.773 2449.6 450C2448.72 449.227 2447.63 448.84 2446.32 448.84ZM2479.36 465.48C2477.52 465.48 2475.85 465.16 2474.36 464.52C2472.86 463.853 2471.66 462.84 2470.76 461.48C2469.85 460.12 2469.37 458.413 2469.32 456.36H2474.36C2474.38 457.72 2474.82 458.867 2475.68 459.8C2476.56 460.707 2477.78 461.16 2479.36 461.16C2480.85 461.16 2482 460.747 2482.8 459.92C2483.6 459.093 2484 458.053 2484 456.8C2484 455.333 2483.46 454.227 2482.4 453.48C2481.36 452.707 2480.01 452.32 2478.36 452.32H2476.28V448.12H2478.4C2479.76 448.12 2480.89 447.8 2481.8 447.16C2482.7 446.52 2483.16 445.573 2483.16 444.32C2483.16 443.28 2482.81 442.453 2482.12 441.84C2481.45 441.2 2480.52 440.88 2479.32 440.88C2478.01 440.88 2476.98 441.267 2476.24 442.04C2475.52 442.813 2475.12 443.76 2475.04 444.88H2470.04C2470.14 442.293 2471.04 440.253 2472.72 438.76C2474.42 437.267 2476.62 436.52 2479.32 436.52C2481.24 436.52 2482.85 436.867 2484.16 437.56C2485.49 438.227 2486.49 439.12 2487.16 440.24C2487.85 441.36 2488.2 442.6 2488.2 443.96C2488.2 445.533 2487.76 446.867 2486.88 447.96C2486.02 449.027 2484.96 449.747 2483.68 450.12C2485.25 450.44 2486.53 451.213 2487.52 452.44C2488.5 453.64 2489 455.16 2489 457C2489 458.547 2488.62 459.96 2487.88 461.24C2487.13 462.52 2486.04 463.547 2484.6 464.32C2483.18 465.093 2481.44 465.48 2479.36 465.48Z" fill="#646464"/>
</svg>
